<?xml version="1.0" encoding="utf-8"?>
<!-- Generator: Adobe Illustrator 23.0.3, SVG Export Plug-In . SVG Version: 6.00 Build 0)  -->
<svg version="1.1" id="Layer_1" xmlns="http://www.w3.org/2000/svg" xmlns:xlink="http://www.w3.org/1999/xlink" x="0px" y="0px"
	 viewBox="0 0 300 80" style="enable-background:new 0 0 300 80;" xml:space="preserve">
<style type="text/css">
	.st0{display:none;}
	.st1{display:inline;fill:#1c6176;}
	.st2{display:inline;}
	.st3{fill:#1c6176;}
	.st4{fill:#1c6176;}
	.st5{font-family:'Poppins-SemiBold';}
	.st6{font-size:26.4614px;}
	.st7{fill:#ff9933;}
	
</style>
<g class="st0">
	<g>
		<path class="st1" d="M90.6,32.6c1.5,1.1,2.6,2.7,2.9,4.6h-4.1c-0.4-0.9-0.9-1.6-1.8-2.1c-0.9-0.5-1.8-0.8-2.9-0.8
			c-1.1,0-2.1,0.3-2.9,0.8c-0.9,0.5-1.5,1.2-2,2.2c-0.5,0.9-0.8,2.1-0.8,3.3c0,2,0.6,3.6,1.6,4.7c1,1.1,2.6,1.7,4.4,1.7
			c1.4,0,2.6-0.4,3.6-1.2c0.9-0.9,1.6-2,1.9-3.4h-6.5v-2.7h9.7v3.7c-0.3,1.2-0.9,2.5-1.6,3.5c-0.8,1-1.8,1.9-3.1,2.6
			c-1.3,0.7-2.7,0.9-4.4,0.9c-1.9,0-3.6-0.4-5-1.2c-1.4-0.9-2.6-2-3.3-3.5c-0.8-1.5-1.2-3.2-1.2-5.1c0-1.9,0.4-3.6,1.2-5.1
			c0.8-1.5,1.9-2.6,3.3-3.5c1.4-0.9,3.1-1.2,5-1.2C87.1,30.9,89,31.5,90.6,32.6z"/>
		<path class="st1" d="M106,36c0.9,0.6,1.5,1.4,1.9,2.5v-3.1h3.8v15.1h-3.8v-3.3c-0.4,1-1,1.8-1.9,2.5c-0.9,0.6-2,0.9-3.3,0.9
			c-1.2,0-2.5-0.3-3.4-0.9c-1-0.7-1.8-1.5-2.4-2.6c-0.6-1.1-0.9-2.6-0.9-4.2s0.3-2.9,0.9-4.2c0.6-1.1,1.3-2.1,2.4-2.6
			c1-0.7,2.2-0.9,3.4-0.9C103.9,35.1,105.1,35.4,106,36z M101,39.6c-0.8,0.8-1.1,1.9-1.1,3.2c0,1.3,0.4,2.5,1.1,3.2
			c0.8,0.8,1.7,1.1,2.9,1.1c1.1,0,2.1-0.4,2.8-1.2c0.8-0.8,1.1-1.9,1.1-3.2c0-1.3-0.4-2.5-1.1-3.2c-0.8-0.8-1.7-1.2-2.8-1.2
			C102.7,38.5,101.8,38.9,101,39.6z"/>
		<path class="st1" d="M128.4,36.8c1,1.1,1.5,2.7,1.5,4.8v8.8h-3.8v-8.3c0-1.2-0.3-2.2-0.9-2.8c-0.7-0.7-1.4-1-2.6-1s-2,0.4-2.6,1
			c-0.7,0.8-0.9,1.7-0.9,3v8h-3.9V35.2h3.9v3c0.4-1,1-1.8,2-2.4s2-0.9,3.2-0.9C125.9,35.1,127.4,35.6,128.4,36.8z"/>
		<path class="st1" d="M142.5,36c0.9,0.6,1.5,1.4,2,2.5v-8.3h3.8v20.2h-3.8v-3.2c-0.4,1-1,1.8-2,2.5c-0.9,0.6-2,0.9-3.2,0.9
			c-1.2,0-2.5-0.3-3.4-0.9c-1-0.7-1.8-1.5-2.4-2.6c-0.6-1.1-0.9-2.6-0.9-4.2s0.3-2.9,0.9-4.2c0.6-1.1,1.3-2.1,2.4-2.6
			c1-0.7,2.2-0.9,3.4-0.9C140.5,35.1,141.6,35.4,142.5,36z M137.6,39.6c-0.8,0.8-1.1,1.9-1.1,3.2c0,1.3,0.4,2.5,1.1,3.2
			s1.7,1.1,2.9,1.1c1.1,0,2.1-0.4,2.8-1.2c0.8-0.8,1.1-1.9,1.1-3.2c0-1.3-0.4-2.5-1.1-3.2c-0.8-0.8-1.7-1.2-2.8-1.2
			C139.3,38.5,138.2,38.9,137.6,39.6z"/>
		<path class="st1" d="M160.9,36c0.9,0.6,1.5,1.4,1.9,2.5v-3.1h3.8v15.1h-3.8v-3.3c-0.4,1-1,1.8-1.9,2.5c-0.9,0.6-2,0.9-3.3,0.9
			c-1.2,0-2.5-0.3-3.4-0.9c-1-0.7-1.8-1.5-2.4-2.6c-0.6-1.1-0.9-2.6-0.9-4.2s0.3-2.9,0.9-4.2c0.6-1.1,1.3-2.1,2.4-2.6
			c1-0.7,2.2-0.9,3.4-0.9C158.9,35.1,160.1,35.4,160.9,36z M156,39.6c-0.8,0.8-1.1,1.9-1.1,3.2c0,1.3,0.4,2.5,1.1,3.2
			s1.7,1.1,2.9,1.1c1.1,0,2.1-0.4,2.8-1.2c0.8-0.8,1.1-1.9,1.1-3.2c0-1.3-0.4-2.5-1.1-3.2c-0.8-0.8-1.7-1.2-2.8-1.2
			C157.7,38.5,156.8,38.9,156,39.6z"/>
		<path class="st1" d="M174.1,30.2v20.2h-3.9V30.2H174.1z"/>
		<path class="st1" d="M182.7,33.2c-0.5,0.4-0.7,1.1-0.7,2.1l0,0h3v3.2h-3v11.9h-3.9V38.5h-1.9v-3.2h1.9v-0.4c0-1.8,0.5-3.2,1.5-4.2
			c1-0.9,2.6-1.4,4.5-1.4c0.4,0,0.6,0,0.8,0v3.3C183.9,32.6,183.1,32.7,182.7,33.2z"/>
	</g>
	<g class="st2">
		<g>
			<g>
				<path class="st3" d="M20.2,13.3c0.3,0.2,0.6,0.3,0.8,0.5c0.5,0.4,0.9,0.9,1.3,1.2c0.7,0.7,1.4,0.8,2.3,0.4
					c1.5-0.7,3-1.2,4.4-1.9c0.9-0.4,1.3-0.9,1.3-1.9c0-0.6,0-1.1,0-1.7c0-0.7,0.3-1,0.9-1.1c4-0.8,8-0.8,12,0
					c0.6,0.1,0.9,0.5,0.9,1.1c0,0.6,0,1.2,0,1.8c0,0.9,0.5,1.5,1.3,1.9c1.5,0.6,3,1.2,4.4,1.9c0.9,0.4,1.6,0.3,2.3-0.4
					c0.4-0.4,0.9-0.9,1.2-1.2c0.6-0.5,0.9-0.6,1.5-0.2c3.3,2.3,6.1,5.1,8.4,8.4c0.4,0.6,0.4,1-0.1,1.5c-0.4,0.4-0.9,0.9-1.2,1.2
					c-0.7,0.7-0.8,1.5-0.4,2.4c0.7,1.5,1.2,2.9,1.9,4.4c0.4,0.9,0.9,1.3,2,1.4c0.6,0,1.1,0,1.7,0c0.8,0,1,0.3,1.2,0.9
					c0.5,2.6,0.8,5.1,0.6,7.7c-0.1,1.3-0.3,2.7-0.5,4.1c-0.1,0.9-0.5,1.2-1.4,1.2c-0.5,0-1,0-1.5,0c-0.9,0-1.6,0.5-2,1.4
					c-0.6,1.5-1.2,2.9-1.9,4.4c-0.4,0.9-0.3,1.7,0.4,2.4c0.4,0.4,0.9,0.9,1.2,1.2c0.5,0.5,0.6,0.9,0.2,1.5c-2.3,3.4-5.1,6.1-8.5,8.5
					c-0.6,0.4-1,0.4-1.5-0.1c-0.5-0.4-0.9-0.9-1.3-1.2c-0.7-0.7-1.4-0.8-2.3-0.4c-1.5,0.7-3,1.2-4.4,1.9c-0.9,0.4-1.3,0.9-1.3,1.9
					c0,0.6,0,1.1,0,1.7c0,0.7-0.3,1-0.9,1.1c-3.1,0.6-6.2,0.8-9.4,0.4c-0.9-0.1-1.6-0.2-2.4-0.4c-0.9-0.2-1.1-0.5-1.1-1.3
					c0-0.6,0-1,0-1.6c0-0.9-0.5-1.5-1.3-1.9c-1.5-0.6-3-1.2-4.4-1.9c-0.9-0.4-1.6-0.3-2.3,0.4c-0.4,0.4-0.9,0.9-1.2,1.2
					c-0.6,0.6-0.9,0.6-1.6,0.1c-3.3-2.3-6.1-5.1-8.4-8.4c-0.4-0.6-0.4-1,0.1-1.5c0.4-0.4,0.9-0.9,1.2-1.2c0.7-0.7,0.8-1.5,0.4-2.4
					c-0.7-1.5-1.2-2.9-1.8-4.4c-0.4-0.9-0.9-1.3-2-1.4c-0.6,0-1.1,0-1.7,0c-0.8,0-1-0.3-1.2-0.9c-0.5-2.6-0.7-5.1-0.6-7.7
					c0.1-1.3,0.3-2.6,0.5-4C6.1,33.3,6.5,33,7.4,33c0.5,0,1,0,1.5,0c0.9,0,1.6-0.5,2-1.4c0.6-1.5,1.2-2.9,1.9-4.4
					c0.4-0.9,0.3-1.7-0.4-2.4c-0.4-0.4-0.9-0.9-1.2-1.2c-0.5-0.5-0.6-0.9-0.2-1.5c2.3-3.4,5.1-6.1,8.5-8.5
					C19.6,13.4,19.9,13.4,20.2,13.3z M7.9,44.8c0.3,0,0.6,0,0.9,0c2,0,3.4,1,4.1,2.9c0.5,1.4,1.1,2.7,1.7,4.1
					c0.8,1.7,0.5,3.4-0.8,4.6c-0.2,0.3-0.6,0.4-0.9,0.7c2.1,2.8,4.3,5.1,7.1,7.1c0.2-0.3,0.4-0.6,0.6-0.8c1.3-1.3,3-1.6,4.7-0.9
					c1.4,0.7,2.7,1.2,4.2,1.7c1.5,0.6,2.5,1.6,2.6,3.2c0.1,0.6,0.1,1.1,0.1,1.6c3.3,0.6,6.5,0.6,9.7,0c0-0.3,0-0.6,0-0.9
					c0-2.1,1-3.4,2.9-4.2c1.3-0.5,2.6-1,4-1.6c1.7-0.8,3.4-0.6,4.8,0.8c0.3,0.2,0.4,0.6,0.6,0.9c2.8-2.1,5.2-4.3,7.1-7.1
					c-0.2-0.2-0.5-0.4-0.7-0.6c-1.4-1.4-1.7-3.1-0.9-5c0.6-1.3,1.1-2.6,1.6-4c0.7-1.8,2.1-2.8,4-2.8c0.3,0,0.7,0,0.9,0
					c0.6-3.3,0.6-6.5,0-9.8c-0.3,0-0.6,0-0.9,0c-2,0-3.4-1-4.1-2.9c-0.5-1.4-1.1-2.7-1.7-4.1c-0.8-1.7-0.5-3.4,0.8-4.6
					c0.2-0.3,0.6-0.4,0.9-0.7c-2-2.8-4.3-5.1-7.1-7.1c-0.3,0.4-0.5,0.7-0.9,0.9C52,17.5,50.6,17.7,49,17c-1.5-0.7-3-1.2-4.5-1.9
					c-1.4-0.6-2.3-1.6-2.6-3c-0.1-0.6-0.1-1.1-0.2-1.8c-3.2-0.6-6.4-0.6-9.7,0c0,0.3,0,0.6,0,0.9c0,2.1-1,3.4-2.9,4.2
					c-1.3,0.5-2.6,1-4,1.6c-1.8,0.9-3.5,0.6-4.9-0.9c-0.2-0.2-0.3-0.5-0.5-0.8c-2.8,2.1-5.2,4.3-7.1,7.1c0.3,0.3,0.6,0.5,0.8,0.7
					c1.2,1.3,1.5,3,0.8,4.6c-0.7,1.4-1.2,2.8-1.8,4.3c-0.6,1.5-1.6,2.4-3.2,2.6c-0.6,0.1-1.1,0.1-1.7,0.1
					C7.3,38.3,7.3,41.5,7.9,44.8z"/>
				<path class="st3" d="M37.2,17.3c12.5,0,22.6,10.1,22.6,22.6S49.7,62.4,37.1,62.4c-12.3,0-22.4-10.2-22.4-22.6
					C14.7,27.5,24.8,17.3,37.2,17.3z M37.3,19.4c-11.3,0-20.5,9.2-20.5,20.5S26,60.5,37.3,60.5s20.6-9.2,20.6-20.6
					C57.8,28.6,48.5,19.4,37.3,19.4z"/>
				<path class="st3" d="M21.1,40.5c-1.8-2.7-1.7-5.3,0.3-7.5c0.5-0.6,1.1-0.9,1.7-1.4c0.2-0.1,0.3-0.4,0.3-0.6
					c-0.2-3,2.1-5.8,5.6-6.4c2.6-0.5,4.8,0.2,6.7,1.9c0.4,0.4,0.6,0.9,0.6,1.4c0,7.9,0,15.9,0,23.8c0,0.4-0.2,0.9-0.5,1.2
					c-2.8,3.1-8.1,3-11-0.2c-0.8-0.9-1.2-1.9-1.4-3.1c0-0.2-0.2-0.5-0.4-0.6C20.3,47.8,18.5,43.9,21.1,40.5z M30.4,41
					c0.7-1.9,1.9-3,3.8-3.5c0-3.1,0-6.1,0-9.3c0-0.2-0.1-0.4-0.3-0.5c-2.1-1.9-5.9-1.6-7.6,0.6c-0.7,0.8-0.9,1.6-0.9,2.6
					c2.2,0.7,3.5,2.3,3.2,3.9c-0.7,0-1.2,0-1.9,0c0-0.2-0.1-0.3-0.1-0.5c-0.4-1.1-1.4-1.5-2.5-1c-2,0.9-3.5,4-1,6.2
					c0.7,0.6,0.6,1.1,0,1.8c-1.9,1.9-1.5,4.7,0.9,6c0.9,0.6,1.9,0.3,2.3-0.8c0.1-0.2,0.1-0.4,0.2-0.6c0.7,0,1.3,0,2,0
					c-0.2,1.9-1.1,3-2.9,3.7c0.1,0.3,0.2,0.7,0.4,0.9c1.7,3.4,6,3.2,8,1.3c0.2-0.1,0.2-0.5,0.2-0.7c0-3.7,0-7.4,0-11.1
					c0-0.2,0-0.3-0.1-0.5c-0.9,0.4-1.4,1-1.8,1.9C31.7,41.5,31.1,41.2,30.4,41z"/>
				<path class="st3" d="M48.5,43c0.9-1.7,2.2-2.4,3.7-2c1.3,0.4,2.3,1.5,2.3,2.9s-0.9,2.6-2.2,3c-1.5,0.5-2.8-0.2-3.9-1.9
					c-1.2,0-2.6,0-3.9,0c-0.2,0-0.5,0.2-0.6,0.4c-0.6,0.7-1.1,1.4-1.7,2.2c-0.2,0.3-0.6,0.6-0.9,0.6c-1.3,0.1-2.7,0-4.2,0
					c0-0.7,0-1.3,0-2.1c0.9,0,2,0,2.9,0c0.4,0,0.8-0.1,0.9-0.5c0.5-0.7,1.1-1.3,1.6-2.1c0.3-0.4,0.7-0.6,1.2-0.6
					C45.6,43,47,43,48.5,43z M51.5,43c-0.6,0-1,0.5-1,1s0.5,1,1,1c0.6,0,1-0.5,1-1C52.4,43.5,52,43,51.5,43z"/>
				<path class="st3" d="M37.5,33.8c0-0.8,0-1.3,0-2.1c1.4,0,2.8,0,4.2,0c0.3,0,0.6,0.3,0.9,0.6c0.6,0.7,1.1,1.4,1.7,2.2
					c0.2,0.2,0.5,0.4,0.8,0.4c1.1,0,2.2,0,3.3,0c0.4,0,0.5-0.1,0.7-0.4c0.7-1.3,2.1-1.9,3.5-1.5s2.4,1.5,2.4,3
					c0,1.4-0.9,2.6-2.3,2.9c-1.4,0.4-2.7-0.2-3.5-1.5c-0.2-0.4-0.4-0.5-0.8-0.5c-1.3,0-2.6,0-3.9,0c-0.6,0-0.9-0.2-1.2-0.6
					c-0.5-0.7-1-1.3-1.6-2c-0.3-0.4-0.6-0.5-0.9-0.5C39.6,33.8,38.5,33.8,37.5,33.8z M51.7,34.8c-0.6,0-1,0.5-1,1s0.5,1,0.9,1
					c0.6,0,1-0.5,1-1C52.7,35.3,52.2,34.8,51.7,34.8z"/>
				<path class="st3" d="M37.3,26.6c0-0.8,0-1.3,0-2c1.1,0,2.2,0,3.2,0c0.3,0,0.6,0.3,0.8,0.6c0.6,0.7,1.1,1.4,1.6,2.2
					c0.3,0.4,0.7,0.4,0.9,0.3c0.2,0,0.4-0.3,0.4-0.5c0.5-1.3,1.8-2.2,3.2-2c1.4,0.1,2.5,1.1,2.7,2.6c0.3,1.3-0.5,2.6-1.7,3.3
					c-1.2,0.6-2.7,0.3-3.7-0.9c-0.3-0.3-0.5-0.5-0.9-0.4c-1.3,0.3-2.3-0.3-2.8-1.5c-0.7-1.3-1.7-1.9-3.2-1.6
					C37.7,26.6,37.5,26.6,37.3,26.6z M47.1,29.1c0.6,0,1-0.5,1-1c0-0.6-0.5-1-1-1s-1,0.5-1,1C46.1,28.8,46.6,29.1,47.1,29.1z"/>
				<path class="st3" d="M37.3,55.3c0-0.7,0-1.3,0-2.1c0.7,0,1.4,0,2.1,0c0.3,0,0.6-0.2,0.8-0.4c0.6-0.7,1-1.3,1.5-2
					c0.4-0.5,0.8-0.8,1.3-0.7c0.2,0,0.4,0,0.6,0c0.6,0.1,1-0.1,1.5-0.6c0.9-1,2.4-1.2,3.6-0.6c1.2,0.7,1.9,2,1.6,3.3
					c-0.3,1.3-1.4,2.4-2.7,2.5c-1.3,0.1-2.6-0.7-3.1-2c-0.1-0.2-0.3-0.5-0.5-0.6c-0.4-0.1-0.8,0-1,0.4c-0.5,0.8-0.9,1.4-1.5,2.1
					c-0.2,0.3-0.6,0.6-0.9,0.6C39.4,55.4,38.3,55.3,37.3,55.3z M47.1,50.7c-0.6,0-1,0.5-1,1s0.5,1,1,1s1-0.5,1-1
					C48.2,51.2,47.7,50.7,47.1,50.7z"/>
				<path class="st3" d="M38.3,35.8c0.7,0,1.3,0,2,0c0,0.7,0,1.3,0,2c-0.7,0-1.3,0-2,0C38.3,37.2,38.3,36.6,38.3,35.8z"/>
				<path class="st3" d="M40.4,40c0.7,0,1.3,0,2,0c0,0.7,0,1.3,0,2c-0.7,0-1.3,0-2,0C40.4,41.3,40.4,40.7,40.4,40z"/>
			</g>
		</g>
		<g>
			<g>
				<path class="st4" d="M90.2,33c1.5,1.1,2.5,2.6,2.9,4.5h-3.9c-0.4-0.8-1-1.5-1.8-2c-0.8-0.5-1.8-0.8-2.8-0.8
					c-1.1,0-2,0.2-2.9,0.7c-0.8,0.5-1.5,1.2-1.9,2.1c-0.5,0.9-0.7,2-0.7,3.2c0,2,0.5,3.5,1.6,4.6c1,1.1,2.5,1.6,4.3,1.6
					c1.3,0,2.5-0.4,3.5-1.2c1-0.8,1.6-1.9,1.9-3.3h-6.3v-2.7h9.4v3.6c-0.3,1.2-0.8,2.4-1.5,3.4c-0.8,1-1.8,1.9-3,2.5
					c-1.2,0.6-2.7,0.9-4.3,0.9c-1.8,0-3.5-0.4-4.9-1.2c-1.4-0.8-2.5-1.9-3.3-3.4c-0.8-1.4-1.2-3.1-1.2-4.9c0-1.9,0.4-3.5,1.2-4.9
					c0.8-1.4,1.8-2.6,3.2-3.4c1.4-0.8,3-1.2,4.8-1.2C86.8,31.3,88.7,31.8,90.2,33z"/>
				<path class="st4" d="M105.1,36.2c0.9,0.6,1.5,1.4,1.9,2.4v-3h3.7v14.7H107v-3.1c-0.4,1-1,1.8-1.9,2.4c-0.9,0.6-1.9,0.9-3.2,0.9
					c-1.2,0-2.3-0.3-3.3-0.9c-1-0.6-1.8-1.5-2.3-2.6c-0.6-1.1-0.8-2.5-0.8-4c0-1.5,0.3-2.9,0.8-4c0.6-1.1,1.3-2,2.3-2.6
					c1-0.6,2.1-0.9,3.3-0.9C103.2,35.3,104.2,35.6,105.1,36.2z M100.3,39.7c-0.7,0.8-1.1,1.8-1.1,3.1c0,1.3,0.4,2.4,1.1,3.1
					c0.7,0.7,1.6,1.1,2.8,1.1c1.1,0,2.1-0.4,2.8-1.2c0.7-0.8,1.1-1.8,1.1-3.1c0-1.3-0.4-2.3-1.1-3.1c-0.7-0.8-1.7-1.2-2.8-1.2
					C101.9,38.6,101,38.9,100.3,39.7z"/>
				<path class="st4" d="M126.8,36.9c1,1.1,1.5,2.7,1.5,4.7v8.5h-3.7v-8.1c0-1.2-0.3-2.1-0.9-2.7c-0.6-0.6-1.4-1-2.5-1
					c-1.1,0-1.9,0.3-2.5,1c-0.6,0.7-1,1.7-1,3v7.8h-3.7V35.5h3.7v2.9c0.4-1,1-1.8,1.9-2.3c0.9-0.6,1.9-0.8,3.1-0.8
					C124.5,35.3,125.8,35.8,126.8,36.9z"/>
				<path class="st4" d="M140.5,36.2c0.9,0.6,1.5,1.4,1.9,2.4v-8h3.7v19.6h-3.7v-3.1c-0.4,1-1,1.8-1.9,2.4c-0.9,0.6-1.9,0.9-3.2,0.9
					c-1.2,0-2.3-0.3-3.3-0.9c-1-0.6-1.8-1.5-2.3-2.6c-0.6-1.1-0.8-2.5-0.8-4c0-1.5,0.3-2.9,0.8-4c0.6-1.1,1.3-2,2.3-2.6
					c1-0.6,2.1-0.9,3.3-0.9C138.6,35.3,139.7,35.6,140.5,36.2z M135.7,39.7c-0.7,0.8-1.1,1.8-1.1,3.1c0,1.3,0.4,2.4,1.1,3.1
					c0.7,0.7,1.6,1.1,2.8,1.1c1.1,0,2.1-0.4,2.8-1.2c0.7-0.8,1.1-1.8,1.1-3.1c0-1.3-0.4-2.3-1.1-3.1c-0.7-0.8-1.7-1.2-2.8-1.2
					C137.4,38.6,136.4,38.9,135.7,39.7z"/>
				<path class="st4" d="M158.4,36.2c0.9,0.6,1.5,1.4,1.9,2.4v-3h3.7v14.7h-3.7v-3.1c-0.4,1-1,1.8-1.9,2.4c-0.9,0.6-1.9,0.9-3.2,0.9
					c-1.2,0-2.3-0.3-3.3-0.9c-1-0.6-1.8-1.5-2.3-2.6c-0.6-1.1-0.8-2.5-0.8-4c0-1.5,0.3-2.9,0.8-4c0.6-1.1,1.3-2,2.3-2.6
					c1-0.6,2.1-0.9,3.3-0.9C156.5,35.3,157.6,35.6,158.4,36.2z M153.6,39.7c-0.7,0.8-1.1,1.8-1.1,3.1c0,1.3,0.4,2.4,1.1,3.1
					c0.7,0.7,1.6,1.1,2.8,1.1c1.1,0,2.1-0.4,2.8-1.2c0.7-0.8,1.1-1.8,1.1-3.1c0-1.3-0.4-2.3-1.1-3.1c-0.7-0.8-1.7-1.2-2.8-1.2
					C155.3,38.6,154.3,38.9,153.6,39.7z"/>
				<path class="st4" d="M171.1,30.6v19.6h-3.7V30.6H171.1z"/>
				<path class="st4" d="M179.5,33.4c-0.4,0.4-0.7,1.1-0.7,2v0h3v3.1h-3v11.5h-3.7V38.6h-1.9v-3.1h1.9v-0.3c0-1.7,0.5-3.1,1.5-4
					c1-0.9,2.5-1.4,4.4-1.4c0.3,0,0.6,0,0.8,0v3.2C180.7,32.9,179.9,33,179.5,33.4z"/>
				<path class="st4" d="M193.5,31.5v18.7h-3.7V31.5H193.5z"/>
				<path class="st4" d="M209.7,36.9c1,1.1,1.5,2.7,1.5,4.7v8.5h-3.7v-8.1c0-1.2-0.3-2.1-0.9-2.7c-0.6-0.6-1.4-1-2.5-1
					c-1.1,0-1.9,0.3-2.5,1c-0.6,0.7-1,1.7-1,3v7.8h-3.7V35.5h3.7v2.9c0.4-1,1-1.8,1.9-2.3c0.9-0.6,1.9-0.8,3.1-0.8
					C207.3,35.3,208.7,35.8,209.7,36.9z"/>
				<path class="st4" d="M223.8,36.7c1.1,0.9,1.7,2.1,2,3.6h-3.5c-0.1-0.7-0.5-1.3-1-1.7c-0.5-0.4-1.1-0.6-1.9-0.6
					c-0.6,0-1.1,0.1-1.5,0.4c-0.4,0.3-0.5,0.7-0.5,1.2c0,0.4,0.1,0.7,0.4,1c0.3,0.2,0.6,0.4,1.1,0.6c0.4,0.1,1,0.3,1.8,0.5
					c1.1,0.2,2,0.5,2.7,0.8c0.7,0.3,1.3,0.7,1.8,1.3c0.5,0.6,0.8,1.4,0.8,2.4c0,1.3-0.5,2.3-1.5,3c-1,0.8-2.3,1.2-4,1.2
					c-1.9,0-3.4-0.4-4.6-1.3c-1.1-0.9-1.8-2.1-2.1-3.7h3.6c0.1,0.7,0.4,1.3,1,1.7c0.5,0.4,1.3,0.6,2.1,0.6c0.6,0,1.1-0.2,1.5-0.5
					c0.3-0.3,0.5-0.7,0.5-1.2c0-0.4-0.1-0.8-0.4-1c-0.3-0.3-0.7-0.5-1.1-0.6c-0.4-0.1-1-0.3-1.8-0.5c-1.1-0.2-2-0.5-2.7-0.8
					c-0.7-0.3-1.3-0.7-1.7-1.2c-0.5-0.6-0.7-1.3-0.7-2.3c0-1.3,0.5-2.3,1.5-3.1c1-0.8,2.3-1.2,4-1.2
					C221.3,35.3,222.7,35.8,223.8,36.7z"/>
				<path class="st4" d="M229,29.8c0.4-0.4,1-0.6,1.7-0.6s1.2,0.2,1.7,0.6c0.4,0.4,0.6,0.9,0.6,1.5c0,0.6-0.2,1.1-0.6,1.4
					c-0.4,0.4-1,0.6-1.7,0.6s-1.2-0.2-1.7-0.6c-0.4-0.4-0.6-0.9-0.6-1.4C228.3,30.7,228.6,30.2,229,29.8z M232.5,35.5v14.7h-3.7
					V35.5H232.5z"/>
				<path class="st4" d="M244.8,36.2c0.9,0.6,1.5,1.4,1.9,2.4v-3h3.7v14.7c0,1.4-0.3,2.6-0.8,3.7c-0.5,1.1-1.3,1.9-2.4,2.6
					c-1.1,0.6-2.4,0.9-3.9,0.9c-2.1,0-3.8-0.5-5.1-1.5c-1.3-1-2.1-2.4-2.4-4.1h3.7c0.2,0.7,0.6,1.3,1.2,1.7c0.6,0.4,1.4,0.6,2.3,0.6
					c1.1,0,2-0.3,2.6-1c0.7-0.6,1-1.6,1-2.9v-3.1c-0.4,1-1,1.8-1.9,2.4c-0.9,0.6-1.9,0.9-3.2,0.9c-1.2,0-2.3-0.3-3.3-0.9
					c-1-0.6-1.8-1.5-2.3-2.6c-0.6-1.1-0.8-2.5-0.8-4c0-1.5,0.3-2.9,0.8-4c0.6-1.1,1.3-2,2.3-2.6c1-0.6,2.1-0.9,3.3-0.9
					C242.9,35.3,243.9,35.6,244.8,36.2z M240,39.7c-0.7,0.8-1.1,1.8-1.1,3.1c0,1.3,0.4,2.4,1.1,3.1c0.7,0.7,1.6,1.1,2.8,1.1
					c1.1,0,2.1-0.4,2.8-1.2c0.7-0.8,1.1-1.8,1.1-3.1c0-1.3-0.4-2.3-1.1-3.1c-0.7-0.8-1.7-1.2-2.8-1.2
					C241.6,38.6,240.7,38.9,240,39.7z"/>
				<path class="st4" d="M266.6,36.9c1,1.1,1.5,2.7,1.5,4.7v8.5h-3.7v-8.1c0-1.2-0.3-2.1-0.9-2.7c-0.6-0.6-1.4-1-2.5-1
					c-1.1,0-1.9,0.3-2.5,1c-0.6,0.7-1,1.7-1,3v7.8h-3.7V30.6h3.7v7.9c0.4-1,1-1.8,1.9-2.3c0.9-0.6,1.9-0.8,3.1-0.8
					C264.2,35.3,265.6,35.8,266.6,36.9z"/>
				<path class="st4" d="M279.2,46.9v3.2h-2c-1.6,0-2.9-0.4-3.8-1.2c-0.9-0.8-1.3-2.1-1.3-4v-6.4h-2v-3.1h2v-3.6h3.7v3.6h3.3v3.1
					h-3.3V45c0,0.7,0.1,1.2,0.4,1.5c0.3,0.3,0.8,0.4,1.4,0.4H279.2z"/>
				<path class="st4" d="M291.2,36.7c1.1,0.9,1.7,2.1,2,3.6h-3.5c-0.1-0.7-0.5-1.3-1-1.7c-0.5-0.4-1.1-0.6-1.9-0.6
					c-0.6,0-1.1,0.1-1.5,0.4c-0.4,0.3-0.5,0.7-0.5,1.2c0,0.4,0.1,0.7,0.4,1c0.3,0.2,0.6,0.4,1.1,0.6c0.4,0.1,1,0.3,1.8,0.5
					c1.1,0.2,2,0.5,2.7,0.8c0.7,0.3,1.3,0.7,1.8,1.3c0.5,0.6,0.8,1.4,0.8,2.4c0,1.3-0.5,2.3-1.5,3c-1,0.8-2.3,1.2-4,1.2
					c-1.9,0-3.4-0.4-4.6-1.3c-1.1-0.9-1.8-2.1-2.1-3.7h3.6c0.1,0.7,0.4,1.3,1,1.7c0.5,0.4,1.3,0.6,2.1,0.6c0.6,0,1.1-0.2,1.5-0.5
					c0.3-0.3,0.5-0.7,0.5-1.2c0-0.4-0.1-0.8-0.4-1c-0.3-0.3-0.7-0.5-1.1-0.6c-0.4-0.1-1-0.3-1.8-0.5c-1.1-0.2-2-0.5-2.7-0.8
					c-0.7-0.3-1.3-0.7-1.7-1.2c-0.5-0.6-0.7-1.3-0.7-2.3c0-1.3,0.5-2.3,1.5-3.1c1-0.8,2.3-1.2,4-1.2
					C288.7,35.3,290.1,35.8,291.2,36.7z"/>
			</g>
		</g>
	</g>
	<g>
		<text transform="matrix(1 0 0 1 74.1604 50.1509)" class="st1 st5 st6">Gandalf Insights</text>
	</g>
</g>
<g>
	<g>
		<g>
			<path class="st7" d="M20.6,11.7c0.3,0.2,0.6,0.3,0.8,0.5c0.5,0.4,0.9,0.9,1.4,1.3c0.7,0.7,1.5,0.8,2.4,0.4c1.6-0.7,3.2-1.3,4.7-2
				c0.9-0.4,1.4-1,1.4-2c0-0.6,0-1.2,0-1.8c0-0.7,0.3-1.1,1-1.2c4.2-0.8,8.5-0.8,12.7,0c0.6,0.1,1,0.5,1,1.2c0,0.6,0,1.3,0,1.9
				c0,1,0.5,1.6,1.4,2c1.6,0.6,3.2,1.3,4.7,2c0.9,0.4,1.7,0.3,2.4-0.4c0.4-0.4,0.9-0.9,1.3-1.3c0.6-0.5,1-0.6,1.6-0.2
				c3.5,2.4,6.5,5.4,8.9,8.9c0.4,0.6,0.4,1.1-0.1,1.6c-0.4,0.4-0.9,0.9-1.3,1.3c-0.7,0.7-0.8,1.6-0.4,2.5c0.7,1.6,1.3,3.1,2,4.7
				c0.4,0.9,1,1.4,2.1,1.5c0.6,0,1.2,0,1.8,0c0.8,0,1.1,0.3,1.3,1c0.5,2.7,0.8,5.4,0.6,8.1c-0.1,1.4-0.3,2.9-0.5,4.3
				c-0.1,1-0.5,1.3-1.5,1.3c-0.5,0-1.1,0-1.6,0c-1,0-1.7,0.5-2.1,1.5c-0.6,1.6-1.3,3.1-2,4.7c-0.4,0.9-0.3,1.8,0.4,2.5
				c0.4,0.4,0.9,0.9,1.3,1.3c0.5,0.5,0.6,1,0.2,1.6c-2.4,3.6-5.4,6.5-9,9c-0.6,0.4-1.1,0.4-1.6-0.1c-0.5-0.4-0.9-0.9-1.4-1.3
				c-0.7-0.7-1.5-0.8-2.4-0.4c-1.6,0.7-3.2,1.3-4.7,2c-0.9,0.4-1.4,1-1.4,2c0,0.6,0,1.2,0,1.8c0,0.7-0.3,1.1-1,1.2
				c-3.3,0.6-6.6,0.8-9.9,0.4c-0.9-0.1-1.7-0.2-2.5-0.4c-1-0.2-1.2-0.5-1.2-1.4c0-0.6,0-1.1,0-1.7c0-1-0.5-1.6-1.4-2
				c-1.6-0.6-3.2-1.3-4.7-2c-0.9-0.4-1.7-0.3-2.4,0.4c-0.4,0.4-0.9,0.9-1.3,1.3c-0.6,0.6-1,0.6-1.7,0.1c-3.5-2.4-6.5-5.4-8.9-8.9
				c-0.4-0.6-0.4-1.1,0.1-1.6c0.4-0.4,0.9-0.9,1.3-1.3c0.7-0.7,0.8-1.6,0.4-2.5c-0.7-1.6-1.3-3.1-1.9-4.7c-0.4-0.9-1-1.4-2.1-1.5
				c-0.6,0-1.2,0-1.8,0c-0.8,0-1.1-0.3-1.3-1c-0.5-2.7-0.7-5.4-0.6-8.2c0.1-1.4,0.3-2.8,0.5-4.2c0.1-1,0.5-1.3,1.5-1.3
				c0.5,0,1.1,0,1.6,0c1,0,1.7-0.5,2.1-1.5c0.6-1.6,1.3-3.1,2-4.7c0.4-0.9,0.3-1.8-0.4-2.5c-0.4-0.4-0.9-0.9-1.3-1.3
				c-0.5-0.5-0.6-1-0.2-1.6c2.4-3.6,5.4-6.5,9-9C20,11.9,20.3,11.9,20.6,11.7z M7.6,45.1c0.3,0,0.6,0,0.9,0c2.1,0,3.6,1.1,4.3,3.1
				c0.5,1.5,1.2,2.9,1.8,4.3c0.8,1.8,0.5,3.6-0.8,4.9c-0.2,0.3-0.6,0.4-0.9,0.7c2.2,3,4.6,5.4,7.5,7.5c0.2-0.3,0.4-0.6,0.6-0.8
				c1.4-1.4,3.2-1.7,5-0.9c1.5,0.7,2.9,1.3,4.4,1.8c1.6,0.6,2.6,1.7,2.8,3.4c0.1,0.6,0.1,1.2,0.1,1.7c3.5,0.6,6.9,0.6,10.3,0
				c0-0.3,0-0.6,0-0.9c0-2.2,1.1-3.6,3.1-4.4c1.4-0.5,2.8-1.1,4.2-1.7c1.8-0.8,3.6-0.6,5.1,0.8c0.3,0.2,0.4,0.6,0.6,0.9
				c3-2.2,5.5-4.6,7.5-7.5c-0.2-0.2-0.5-0.4-0.7-0.6c-1.5-1.5-1.8-3.3-0.9-5.3c0.6-1.4,1.2-2.8,1.7-4.2c0.7-1.9,2.2-3,4.2-3
				c0.3,0,0.7,0,1,0c0.6-3.5,0.6-6.9,0-10.4c-0.3,0-0.6,0-0.9,0c-2.1,0-3.6-1.1-4.3-3.1c-0.5-1.5-1.2-2.9-1.8-4.3
				c-0.8-1.8-0.5-3.6,0.8-4.9c0.2-0.3,0.6-0.4,0.9-0.7c-2.1-3-4.6-5.4-7.5-7.5c-0.3,0.4-0.5,0.7-0.9,1c-1.4,1.2-2.9,1.4-4.6,0.7
				c-1.6-0.7-3.2-1.3-4.8-2c-1.5-0.6-2.4-1.7-2.7-3.2c-0.1-0.6-0.1-1.2-0.2-1.9C40,8,36.6,8,33.1,8.6c0,0.3,0,0.6,0,0.9
				c0,2.2-1.1,3.6-3.1,4.4c-1.4,0.5-2.8,1.1-4.2,1.7c-1.9,0.9-3.7,0.6-5.2-0.9c-0.2-0.2-0.3-0.5-0.5-0.8c-3,2.2-5.5,4.6-7.5,7.5
				c0.3,0.3,0.6,0.5,0.8,0.7c1.3,1.4,1.6,3.2,0.8,4.9c-0.7,1.5-1.3,3-1.9,4.5c-0.6,1.6-1.7,2.5-3.4,2.8c-0.6,0.1-1.2,0.1-1.8,0.1
				C7,38.2,7,41.6,7.6,45.1z"/>
			<path class="st7" d="M38.6,16c13.2,0,23.9,10.7,23.9,23.9s-10.7,23.8-24,23.8c-13,0-23.7-10.8-23.7-23.9
				C14.8,26.8,25.5,16,38.6,16z M38.7,18.2c-12,0-21.7,9.7-21.7,21.7s9.7,21.8,21.7,21.8S60.6,52,60.6,39.9
				C60.5,27.9,50.7,18.2,38.7,18.2z"/>
			<path class="st3" d="M21.6,40.5c-1.9-2.9-1.8-5.6,0.3-7.9c0.5-0.6,1.2-1,1.8-1.5c0.2-0.1,0.3-0.4,0.3-0.6
				c-0.2-3.2,2.2-6.1,5.9-6.8c2.7-0.5,5.1,0.2,7.1,2c0.4,0.4,0.6,0.9,0.6,1.5c0,8.4,0,16.8,0,25.2c0,0.4-0.2,1-0.5,1.3
				c-3,3.3-8.6,3.2-11.6-0.2c-0.8-0.9-1.3-2-1.5-3.3c0-0.2-0.2-0.5-0.4-0.6C20.7,48.3,18.8,44.1,21.6,40.5z M31.4,41.1
				c0.7-2,2-3.2,4-3.7c0-3.3,0-6.5,0-9.8c0-0.2-0.1-0.4-0.3-0.5c-2.2-2-6.2-1.7-8,0.6c-0.7,0.8-1,1.7-0.9,2.8
				c2.3,0.7,3.7,2.4,3.4,4.1c-0.7,0-1.3,0-2,0c0-0.2-0.1-0.3-0.1-0.5c-0.4-1.2-1.5-1.6-2.6-1.1c-2.1,1-3.7,4.2-1.1,6.6
				c0.7,0.6,0.6,1.2,0,1.9c-2,2-1.6,5,0.9,6.4c1,0.6,2,0.3,2.4-0.8c0.1-0.2,0.1-0.4,0.2-0.6c0.7,0,1.4,0,2.1,0
				c-0.2,2-1.2,3.2-3.1,3.9c0.1,0.3,0.2,0.7,0.4,1c1.8,3.6,6.4,3.4,8.5,1.4c0.2-0.1,0.2-0.5,0.2-0.7c0-3.9,0-7.8,0-11.7
				c0-0.2,0-0.3-0.1-0.5c-1,0.4-1.5,1.1-1.9,2C32.8,41.6,32.1,41.3,31.4,41.1z"/>
			<path class="st3" d="M50.7,43.2c1-1.8,2.3-2.5,3.9-2.1c1.4,0.4,2.4,1.6,2.4,3.1c0,1.5-0.9,2.8-2.3,3.2c-1.6,0.5-3-0.2-4.1-2
				c-1.3,0-2.7,0-4.1,0c-0.2,0-0.5,0.2-0.6,0.4c-0.6,0.7-1.2,1.5-1.8,2.3c-0.2,0.3-0.6,0.6-0.9,0.6c-1.4,0.1-2.9,0-4.4,0
				c0-0.7,0-1.4,0-2.2c1,0,2.1,0,3.1,0c0.4,0,0.8-0.1,1-0.5c0.5-0.7,1.2-1.4,1.7-2.2c0.3-0.4,0.7-0.6,1.3-0.6
				C47.6,43.2,49.1,43.2,50.7,43.2z M53.8,43.2c-0.6,0-1.1,0.5-1.1,1.1c0,0.6,0.5,1.1,1.1,1.1c0.6,0,1.1-0.5,1.1-1.1
				C54.8,43.7,54.4,43.2,53.8,43.2z"/>
			<path class="st3" d="M38.9,33.4c0-0.8,0-1.4,0-2.2c1.5,0,3,0,4.4,0c0.3,0,0.6,0.3,0.9,0.6c0.6,0.7,1.2,1.5,1.8,2.3
				c0.2,0.2,0.5,0.4,0.8,0.4c1.2,0,2.3,0,3.5,0c0.4,0,0.5-0.1,0.7-0.4c0.7-1.4,2.2-2,3.7-1.6c1.5,0.4,2.5,1.6,2.5,3.2
				c0,1.5-1,2.7-2.4,3.1c-1.5,0.4-2.9-0.2-3.7-1.6c-0.2-0.4-0.4-0.5-0.8-0.5c-1.4,0-2.8,0-4.1,0c-0.6,0-1-0.2-1.3-0.6
				c-0.5-0.7-1.1-1.4-1.7-2.1c-0.3-0.4-0.6-0.5-1-0.5C41.1,33.4,40,33.4,38.9,33.4z M54,34.5c-0.6,0-1.1,0.5-1.1,1.1
				c0,0.6,0.5,1.1,1,1.1c0.6,0,1.1-0.5,1.1-1.1C55.1,35,54.6,34.5,54,34.5z"/>
			<path class="st3" d="M38.7,25.8c0-0.8,0-1.4,0-2.1c1.2,0,2.3,0,3.4,0c0.3,0,0.6,0.3,0.8,0.6c0.6,0.7,1.2,1.5,1.7,2.3
				c0.3,0.4,0.7,0.4,1,0.3c0.2,0,0.4-0.3,0.4-0.5c0.5-1.4,1.9-2.3,3.4-2.1c1.5,0.1,2.6,1.2,2.9,2.7c0.3,1.4-0.5,2.8-1.8,3.5
				c-1.3,0.6-2.9,0.3-3.9-0.9c-0.3-0.3-0.5-0.5-1-0.4c-1.4,0.3-2.4-0.3-3-1.6c-0.7-1.4-1.8-2-3.4-1.7C39.1,25.8,38.9,25.8,38.7,25.8
				z M49.2,28.5c0.6,0,1.1-0.5,1.1-1.1c0-0.6-0.5-1.1-1.1-1.1c-0.6,0-1.1,0.5-1.1,1.1C48.1,28.1,48.6,28.5,49.2,28.5z"/>
			<path class="st3" d="M38.7,56.2c0-0.7,0-1.4,0-2.2c0.7,0,1.5,0,2.2,0c0.3,0,0.6-0.2,0.8-0.4c0.6-0.7,1.1-1.4,1.6-2.1
				c0.4-0.5,0.8-0.8,1.4-0.7c0.2,0,0.4,0,0.6,0c0.6,0.1,1.1-0.1,1.6-0.6c0.9-1.1,2.5-1.3,3.8-0.6c1.3,0.7,2,2.1,1.7,3.5
				c-0.3,1.4-1.5,2.5-2.9,2.6s-2.7-0.7-3.3-2.1c-0.1-0.2-0.3-0.5-0.5-0.6c-0.4-0.1-0.8,0-1.1,0.4c-0.5,0.8-1,1.5-1.6,2.2
				c-0.2,0.3-0.6,0.6-0.9,0.6C40.9,56.3,39.8,56.2,38.7,56.2z M49.2,51.3c-0.6,0-1.1,0.5-1.1,1.1c0,0.6,0.5,1.1,1.1,1.1
				c0.6,0,1.1-0.5,1.1-1.1C50.3,51.9,49.8,51.3,49.2,51.3z"/>
			<path class="st3" d="M39.8,35.6c0.7,0,1.4,0,2.1,0c0,0.7,0,1.4,0,2.1c-0.7,0-1.4,0-2.1,0C39.8,37,39.8,36.4,39.8,35.6z"/>
			<path class="st3" d="M42,40c0.7,0,1.4,0,2.1,0c0,0.7,0,1.4,0,2.1c-0.7,0-1.4,0-2.1,0C42,41.4,42,40.7,42,40z"/>
		</g>
	</g>
	<g>
		<g>
			<path class="st4" d="M94.7,32.5c1.6,1.2,2.6,2.8,3.1,4.8h-4.1c-0.4-0.9-1-1.6-1.9-2.1c-0.8-0.5-1.9-0.8-3-0.8
				c-1.1,0-2.1,0.3-3,0.8c-0.9,0.5-1.6,1.3-2,2.2c-0.5,1-0.7,2.1-0.7,3.4c0,2.1,0.6,3.7,1.7,4.8c1.1,1.2,2.6,1.7,4.6,1.7
				c1.4,0,2.6-0.4,3.7-1.3c1-0.8,1.7-2,2-3.5h-6.7v-2.8h10v3.8c-0.3,1.3-0.8,2.5-1.6,3.6s-1.9,2-3.2,2.6c-1.3,0.7-2.8,1-4.5,1
				c-1.9,0-3.7-0.4-5.1-1.3c-1.5-0.8-2.6-2-3.4-3.6c-0.8-1.5-1.2-3.3-1.2-5.2c0-2,0.4-3.7,1.2-5.2c0.8-1.5,2-2.7,3.4-3.6
				c1.5-0.9,3.2-1.3,5.1-1.3C91.1,30.8,93.1,31.4,94.7,32.5z"/>
			<path class="st4" d="M110.5,36c0.9,0.6,1.6,1.4,2,2.5v-3.2h3.9v15.5h-3.9v-3.3c-0.4,1-1.1,1.9-2,2.5c-0.9,0.6-2.1,0.9-3.4,0.9
				c-1.3,0-2.5-0.3-3.5-1c-1-0.6-1.9-1.6-2.5-2.8c-0.6-1.2-0.9-2.6-0.9-4.2c0-1.6,0.3-3,0.9-4.2c0.6-1.2,1.4-2.1,2.5-2.8
				c1-0.6,2.2-1,3.5-1C108.5,35,109.6,35.3,110.5,36z M105.4,39.7c-0.7,0.8-1.1,1.9-1.1,3.3c0,1.4,0.4,2.5,1.1,3.3
				c0.7,0.8,1.7,1.2,3,1.2c1.2,0,2.2-0.4,3-1.2c0.8-0.8,1.2-1.9,1.2-3.3c0-1.4-0.4-2.5-1.2-3.3c-0.8-0.8-1.8-1.2-3-1.2
				C107.2,38.5,106.2,38.9,105.4,39.7z"/>
			<path class="st4" d="M133.6,36.8c1.1,1.2,1.6,2.8,1.6,5v9h-3.9v-8.6c0-1.2-0.3-2.2-1-2.9c-0.6-0.7-1.5-1-2.6-1
				c-1.1,0-2,0.4-2.7,1.1c-0.7,0.7-1,1.8-1,3.1v8.2h-4V35.2h4v3.1c0.4-1,1.1-1.9,2-2.5c0.9-0.6,2-0.9,3.3-0.9
				C131.1,35,132.5,35.6,133.6,36.8z"/>
			<path class="st4" d="M148.1,36c0.9,0.6,1.6,1.4,2,2.5V30h3.9v20.7h-3.9v-3.3c-0.4,1-1.1,1.9-2,2.5c-0.9,0.6-2,0.9-3.3,0.9
				c-1.3,0-2.5-0.3-3.5-1c-1-0.6-1.9-1.6-2.5-2.8c-0.6-1.2-0.9-2.6-0.9-4.2c0-1.6,0.3-3,0.9-4.2c0.6-1.2,1.4-2.1,2.5-2.8
				c1-0.6,2.2-1,3.5-1C146,35,147.2,35.3,148.1,36z M143,39.7c-0.7,0.8-1.1,1.9-1.1,3.3c0,1.4,0.4,2.5,1.1,3.3
				c0.7,0.8,1.7,1.2,3,1.2c1.2,0,2.2-0.4,3-1.2c0.8-0.8,1.2-1.9,1.2-3.3c0-1.4-0.4-2.5-1.2-3.3c-0.8-0.8-1.8-1.2-3-1.2
				C144.7,38.5,143.7,38.9,143,39.7z"/>
			<path class="st4" d="M167,36c0.9,0.6,1.6,1.4,2,2.5v-3.2h3.9v15.5H169v-3.3c-0.4,1-1.1,1.9-2,2.5c-0.9,0.6-2.1,0.9-3.4,0.9
				s-2.5-0.3-3.5-1c-1-0.6-1.9-1.6-2.5-2.8c-0.6-1.2-0.9-2.6-0.9-4.2c0-1.6,0.3-3,0.9-4.2c0.6-1.2,1.4-2.1,2.5-2.8
				c1-0.6,2.2-1,3.5-1S166.1,35.3,167,36z M161.9,39.7c-0.7,0.8-1.1,1.9-1.1,3.3c0,1.4,0.4,2.5,1.1,3.3c0.7,0.8,1.7,1.2,3,1.2
				c1.2,0,2.2-0.4,3-1.2c0.8-0.8,1.2-1.9,1.2-3.3c0-1.4-0.4-2.5-1.2-3.3c-0.8-0.8-1.8-1.2-3-1.2C163.7,38.5,162.7,38.9,161.9,39.7z"
				/>
			<path class="st4" d="M180.5,30v20.7h-4V30H180.5z"/>
			<path class="st4" d="M189.3,33c-0.5,0.4-0.7,1.1-0.7,2.2v0h3.1v3.3h-3.1v12.2h-4V38.6h-2v-3.3h2v-0.4c0-1.8,0.5-3.3,1.6-4.3
				c1.1-1,2.6-1.5,4.7-1.5c0.4,0,0.6,0,0.8,0v3.4C190.6,32.5,189.8,32.6,189.3,33z"/>
			<path class="st4" d="M204.2,31v19.8h-4V31H204.2z"/>
			<path class="st4" d="M221.3,36.8c1.1,1.2,1.6,2.8,1.6,5v9H219v-8.6c0-1.2-0.3-2.2-1-2.9c-0.6-0.7-1.5-1-2.6-1
				c-1.1,0-2,0.4-2.7,1.1c-0.7,0.7-1,1.8-1,3.1v8.2h-4V35.2h4v3.1c0.4-1,1.1-1.9,2-2.5c0.9-0.6,2-0.9,3.3-0.9
				C218.8,35,220.2,35.6,221.3,36.8z"/>
			<path class="st4" d="M236.3,36.5c1.1,1,1.8,2.2,2.1,3.8h-3.7c-0.1-0.7-0.5-1.3-1-1.8c-0.5-0.4-1.2-0.7-2-0.7
				c-0.7,0-1.2,0.2-1.6,0.5c-0.4,0.3-0.6,0.7-0.6,1.3c0,0.4,0.1,0.8,0.4,1c0.3,0.3,0.7,0.5,1.1,0.6c0.4,0.1,1.1,0.3,1.9,0.5
				c1.2,0.3,2.1,0.5,2.9,0.8c0.7,0.3,1.4,0.7,1.9,1.4c0.5,0.6,0.8,1.5,0.8,2.5c0,1.3-0.5,2.4-1.6,3.2c-1,0.8-2.4,1.2-4.2,1.2
				c-2,0-3.6-0.5-4.8-1.4c-1.2-0.9-2-2.2-2.2-3.9h3.8c0.1,0.8,0.4,1.4,1,1.8c0.6,0.4,1.3,0.7,2.3,0.7c0.7,0,1.2-0.2,1.5-0.5
				c0.4-0.3,0.5-0.8,0.5-1.3c0-0.4-0.2-0.8-0.5-1.1c-0.3-0.3-0.7-0.5-1.1-0.6c-0.5-0.1-1.1-0.3-1.9-0.5c-1.2-0.3-2.1-0.5-2.8-0.8
				c-0.7-0.3-1.3-0.7-1.8-1.3c-0.5-0.6-0.8-1.4-0.8-2.5c0-1.3,0.5-2.4,1.5-3.3c1-0.8,2.4-1.3,4.3-1.3
				C233.6,35,235.1,35.5,236.3,36.5z"/>
			<path class="st4" d="M241.7,29.2c0.4-0.4,1-0.6,1.8-0.6s1.3,0.2,1.8,0.6c0.4,0.4,0.7,0.9,0.7,1.6c0,0.6-0.2,1.1-0.7,1.5
				c-0.4,0.4-1,0.6-1.8,0.6s-1.3-0.2-1.8-0.6c-0.4-0.4-0.7-0.9-0.7-1.5C241.1,30.1,241.3,29.6,241.7,29.2z M245.5,35.2v15.5h-4V35.2
				H245.5z"/>
			<path class="st4" d="M258.5,36c0.9,0.6,1.6,1.4,2,2.5v-3.2h3.9v15.6c0,1.4-0.3,2.7-0.9,3.9c-0.6,1.1-1.4,2.1-2.5,2.7
				c-1.1,0.7-2.5,1-4.1,1c-2.2,0-4.1-0.5-5.4-1.6s-2.2-2.5-2.5-4.3h3.9c0.2,0.8,0.7,1.4,1.3,1.8c0.6,0.4,1.5,0.7,2.5,0.7
				c1.2,0,2.1-0.3,2.8-1c0.7-0.7,1.1-1.7,1.1-3.1v-3.3c-0.4,1-1.1,1.9-2,2.5s-2.1,0.9-3.4,0.9c-1.3,0-2.5-0.3-3.5-1
				s-1.9-1.6-2.5-2.8c-0.6-1.2-0.9-2.6-0.9-4.2c0-1.6,0.3-3,0.9-4.2c0.6-1.2,1.4-2.1,2.5-2.8c1-0.6,2.2-1,3.5-1
				C256.4,35,257.6,35.3,258.5,36z M253.4,39.7c-0.7,0.8-1.1,1.9-1.1,3.3c0,1.4,0.4,2.5,1.1,3.3c0.7,0.8,1.7,1.2,3,1.2
				c1.2,0,2.2-0.4,3-1.2c0.8-0.8,1.2-1.9,1.2-3.3c0-1.4-0.4-2.5-1.2-3.3c-0.8-0.8-1.8-1.2-3-1.2C255.1,38.5,254.2,38.9,253.4,39.7z"
				/>
			<path class="st4" d="M281.5,36.8c1.1,1.2,1.6,2.8,1.6,5v9h-3.9v-8.6c0-1.2-0.3-2.2-1-2.9c-0.6-0.7-1.5-1-2.6-1
				c-1.1,0-2,0.4-2.7,1.1c-0.7,0.7-1,1.8-1,3.1v8.2h-4V30h4v8.3c0.4-1,1.1-1.9,2-2.5c0.9-0.6,2-0.9,3.3-0.9
				C279,35,280.5,35.6,281.5,36.8z"/>
			<path class="st4" d="M294.9,47.4v3.4h-2.1c-1.7,0-3.1-0.4-4-1.3c-0.9-0.8-1.4-2.2-1.4-4.2v-6.7h-2.2v-3.3h2.2v-3.8h4v3.8h3.5v3.3
				h-3.5v6.8c0,0.7,0.1,1.3,0.4,1.6c0.3,0.3,0.8,0.4,1.5,0.4H294.9z"/>
		</g>
	</g>
</g>
</svg>
